<?xml version="1.0" encoding="utf-8"?>
<!-- Generator: Adobe Illustrator 28.4.1, SVG Export Plug-In . SVG Version: 6.00 Build 0)  -->
<svg version="1.1" id="Layer_1" xmlns="http://www.w3.org/2000/svg" xmlns:xlink="http://www.w3.org/1999/xlink" x="0px" y="0px"
	 viewBox="0 0 1200 1200" style="enable-background:new 0 0 1200 1200;" xml:space="preserve">
<style type="text/css">
	.st0{fill:#E3176E;}
</style>
<path class="st0" d="M417.3,111c-40,0-40,60.1,0,60.1h25.3c23.4,0,41.2,17.8,41.2,41.2V240c-45.8,32.3-77.6,83.1-84.6,141.5
	c-34.4-17.4-67.6-30.5-100.8-30.5C183.6,350.9,90,445,90,560c0,115,93.6,209,208.4,209c32.7,0,65.4-12.7,99.2-29.7v91.1
	c0,102.1,76,186.5,174.3,200.3v29c0.9,39.1,59.1,39.1,60,0V1030c96.6-15.3,170.7-98.9,170.7-199.7v-91.1
	c33.8,17,66.5,29.7,99.2,29.7c114.7,0,208.2-94,208.2-209c0-115-93.5-209.1-208.2-209.1c-33.2,0-66.4,13.1-100.8,30.5
	c-7-58.3-38.8-109-84.6-141.3v-27.8c0-23.4,17.8-41.2,41.2-41.2h25.3c40,0,40-60.1,0-60.1h-25.3c-55.2,0-100.5,45.1-101.1,100.1
	c-18-5.2-37-8.2-56.6-8.2c-19.6,0-38.5,2.9-56.4,8.1C543,156.1,497.7,111,442.6,111L417.3,111z M600,263
	c79.5,0,142.6,63.2,142.6,142.6v9.6c-15.7,10-31.2,20.3-45.9,30.8c-45.8,32.4-77.6,58.7-96.6,74.8c-19.1-16.1-50.9-42.4-96.7-74.8
	c-14.7-10.4-30.2-20.8-45.8-30.8v-9.6C457.6,326.1,520.5,263,600,263z M298.4,410.9c15.5,0,44.2,9,75.1,24.8
	c30.9,15.8,64.5,37.3,95.3,59.1c45.7,32.4,65.6,50.5,82.8,65.2c-17.2,14.6-37.1,32.5-82.8,64.9c-30.8,21.8-64.4,43.6-95.3,59.4
	c-30.9,15.7-59.5,24.8-75.1,24.8C216.2,709,150,642.7,150,560S216.2,410.9,298.4,410.9L298.4,410.9z M901.8,410.9
	c82.2,0,148.2,66.4,148.2,149.1s-66,149-148.2,149c-15.5,0-44.2-9-75.1-24.8c-30.9-15.8-64.6-37.5-95.4-59.4
	c-45.7-32.4-65.4-50.2-82.6-64.9c17.2-14.6,36.9-32.8,82.6-65.2c30.8-21.8,64.6-43.4,95.4-59.1C857.6,420,886.3,410.9,901.8,410.9
	L901.8,410.9z M600.1,599.2c19.1,16.1,50.8,42.4,96.6,74.8c14.7,10.4,30.2,20.8,45.9,30.8v9.6h-285v-9.6
	c15.7-10,31.1-20.3,45.8-30.8C549.2,641.5,581.1,615.3,600.1,599.2z M457.6,774.3h285v56c0,3.8-0.8,7.4-1.1,11.1H458.7
	c-0.3-3.7-1.1-7.3-1.1-11.1L457.6,774.3z M477,901.5h246.3c-24.5,42.6-69.9,71.3-123.2,71.3C546.7,972.8,501.4,944.1,477,901.5z"/>
</svg>
