<?xml version="1.0" encoding="utf-8"?>
<!-- Generator: Adobe Illustrator 28.4.1, SVG Export Plug-In . SVG Version: 6.00 Build 0)  -->
<svg version="1.1" id="Layer_1" xmlns="http://www.w3.org/2000/svg" xmlns:xlink="http://www.w3.org/1999/xlink" x="0px" y="0px"
	 viewBox="0 0 1200 1200" style="enable-background:new 0 0 1200 1200;" xml:space="preserve">
<style type="text/css">
	.st0{fill:#E3176E;}
</style>
<path class="st0" d="M919.3,500.2c-9.4-9.4-19.5-18.2-30-26.1c-4.8-3.6-9.8-7.1-14.8-10.4c1.1-9.9,1.6-19.9,1.6-30
	c0-75.7-29.5-146.9-83-200.5c-53.5-53.5-124.7-83-200.5-83c-75.7,0-146.9,29.5-200.5,83c-53.5,53.5-83,124.7-83,200.5
	c0,10.5,0.6,21,1.7,31.4c-6.3,4.2-12.5,8.7-18.5,13.5c-5,4-10,8.3-14.8,12.6c-55.9,51-88.7,120.8-92.2,196.4
	c-3.5,75.6,22.7,148.1,73.7,204.1c51,55.9,120.8,88.7,196.4,92.1c4.5,0.2,8.9,0.3,13.3,0.3c43.8,0,86.3-10,124.8-29
	c38.4,18.9,81,29,125.1,29c75.7,0,146.9-29.5,200.5-83s83-124.7,83-200.5S972.8,553.7,919.3,500.2z M869.8,851.6
	c-40.3,40.3-93.9,62.5-151,62.5c-19.1,0-37.7-2.5-55.7-7.3c18.4-17.4,34.4-37,47.5-58.4c11.4-18.6,20.6-38.6,27.4-59.3
	c1.1-3.4,2.2-6.9,3.2-10.4c5.3-18.6-5.5-38-24.1-43.3c-18.6-5.3-38,5.5-43.3,24.1c-0.7,2.6-1.6,5.3-2.4,7.8
	c-5.1,15.6-12,30.6-20.6,44.6c-10.5,17.1-23.4,32.8-38.4,46.5c-6,5.5-12.3,10.6-18.8,15.3c-9.1-6.6-17.7-14-25.8-22.1
	c-26.1-26.1-45-58.5-54.8-93.7c-16.7-60.3-6.4-124.5,28.4-176.2c10.8-16,6.5-37.8-9.5-48.6c-16-10.8-37.8-6.5-48.6,9.5
	c-46.2,68.6-59.9,153.9-37.7,233.9c13,46.9,38.1,89.9,72.7,124.5c1.9,1.9,3.9,3.9,5.9,5.7c-21.1,5.7-43.1,8.1-65.5,7.1
	c-57-2.6-109.5-27.3-147.9-69.4c-79.3-87-73.1-222.3,13.9-301.6c1.5-1.4,3-2.7,4.6-4c4.7,11.8,10.2,23.2,16.4,34.3
	c9.5,16.8,30.9,22.7,47.7,13.2c16.8-9.5,22.7-30.9,13.2-47.7c-6.6-11.7-12.1-24-16.4-36.7c9.9-3.9,20.1-7.1,30.6-9.5
	c31.1-7.1,64-7.1,95.1-0.1c30.3,6.9,58.1,19.9,82.7,38.8c9.9,7.6,19.2,16.2,27.7,25.5c2.5,2.7,4.9,5.5,7.2,8.3
	c12.3,14.9,34.3,17.1,49.3,4.8c14.9-12.3,17.1-34.3,4.8-49.3c-3-3.7-6.2-7.4-9.5-10.9c-11.2-12.3-23.6-23.7-36.7-33.8
	c-32.7-25.1-69.6-42.5-109.9-51.7c-41.3-9.4-84.9-9.3-126.2,0.1c-8.9,2-17.6,4.5-26.2,7.3c1.1-116.8,96.4-211.4,213.5-211.4
	c116.8,0,211.9,94.3,213.5,210.7c-3.7-1.2-7.5-2.3-11.3-3.4c-15.4-4.3-31.2-7.2-47.1-8.9c-19.2-2-36.4,12-38.4,31.3
	c-2,19.2,12,36.4,31.3,38.4c12,1.2,23.9,3.5,35.5,6.7c6.5,1.8,12.8,3.9,19.1,6.3c-4.3,13-9.9,25.5-16.6,37.5
	c-37.9,66.9-109.1,108.5-186,108.5c-19.3,0-35,15.7-35,35s15.7,35,35,35c51.1,0,101.2-13.8,144.9-39.8
	c42.4-25.3,77.6-61.3,101.9-104.2c6.5-11.5,12.2-23.5,17-35.7c4.6,3.9,9.1,8,13.3,12.3c40.3,40.3,62.5,93.9,62.5,151
	S910.1,811.3,869.8,851.6z"/>
</svg>
