<?xml version="1.0" encoding="utf-8"?>
<!-- Generator: Adobe Illustrator 28.4.1, SVG Export Plug-In . SVG Version: 6.00 Build 0)  -->
<svg version="1.1" id="Layer_1" xmlns="http://www.w3.org/2000/svg" xmlns:xlink="http://www.w3.org/1999/xlink" x="0px" y="0px"
	 viewBox="0 0 1200 1200" style="enable-background:new 0 0 1200 1200;" xml:space="preserve">
<style type="text/css">
	.st0{fill:#E3176E;}
</style>
<path class="st0" d="M1085,934L914,763c-34.5-34.5-86.8-40.4-127.4-17.8l-25.5-25.5C974.5,475.1,796.6,82.4,468.9,83.7
	c-212.4,0-385.2,172.8-385.2,385.2c-1.3,327.7,391.3,505.5,635.9,292.1l25.5,25.5c-22.5,40.6-16.6,92.9,17.8,127.4l171,171
	c20.8,20.8,48.2,31.2,75.5,31.2C1103.3,1116.8,1152.2,1000.9,1085,934L1085,934z M468.9,795.5c-180.1,0-326.6-146.5-326.6-326.6
	c17.9-433.2,635.3-433.1,653.2,0C795.5,649,649,795.5,468.9,795.5L468.9,795.5z M1043.6,1043.6c-18.8,18.8-49.4,18.8-68.1,0
	l-171-171c-30.3-30.2-8.3-82.5,34.1-82.2c12.3,0,24.7,4.7,34.1,14.1l171,171C1062.4,994.2,1062.4,1024.8,1043.6,1043.6
	L1043.6,1043.6z M363.5,625.8c15.5,3.2,31.4-7,34.5-22.9c0-0.3,2.3-11,8.7-25.9c47.2,19.2,96.2,6.5,135.8-30.3
	c48.3-45.5,78.8-132.5,31.8-216c-10.5-19.6-39.1-20.6-50.3-1.3c-1.8,2.6-18.7,25.3-57.5,30.3c-49.5,6.4-86.8,25.9-107.7,56.6
	c-24.7,35.8-25.9,88.6,0.5,123.8c-13.9,27.4-18.5,49.2-18.9,51.1C337.4,607.2,347.7,622.6,363.5,625.8L363.5,625.8z M407.3,449.3
	c11-16.2,34.7-27.4,66.8-31.5c25.6-3.3,46.6-12.1,62.8-22.3c8.8,43.7-9.2,84.7-34.5,108.5c-8.1,7.6-33.2,28.2-62.3,22.3
	c10.9-11.3,24.5-21.8,41.3-29.7c34.5-18,10.9-68.2-25-53c-23.5,11-42.4,25.5-57.5,41C397.3,470.2,402.2,456.8,407.3,449.3
	L407.3,449.3z M579.1,687.1c5.5,15.2-2.3,32-17.5,37.5c-30.4,11-61.7,16.3-92.6,16.3C255.8,742.4,123.1,499.8,240.7,321
	c-31.1-8.5-28.2-53.3,4.1-57.4l58.6-6.4c16.1-1.8,30.6,9.8,32.3,25.9l6.4,58.6c3,32.8-40.8,45.1-55.5,16
	C182.9,528.4,352,737.6,541.6,669.6C556.8,664,573.6,671.9,579.1,687.1L579.1,687.1z M693,674.2l-58.6,6.4
	c-15.6,2-30.9-10.3-32.3-25.9l-6.4-58.6c-3-32.9,40.9-45.1,55.5-16C755,409.4,585.8,200.2,396.3,268.3c-15.2,5.5-32-2.3-37.5-17.5
	c-5.5-15.2,2.3-32,17.5-37.5c245-87.7,461.1,186.1,320.9,403.6C728.3,625.3,725.4,670.1,693,674.2L693,674.2z"/>
</svg>
