<?xml version="1.0" encoding="utf-8"?>
<!-- Generator: Adobe Illustrator 28.4.1, SVG Export Plug-In . SVG Version: 6.00 Build 0)  -->
<svg version="1.1" id="Layer_1" xmlns="http://www.w3.org/2000/svg" xmlns:xlink="http://www.w3.org/1999/xlink" x="0px" y="0px"
	 viewBox="0 0 1200 1200" style="enable-background:new 0 0 1200 1200;" xml:space="preserve">
<style type="text/css">
	.st0{fill:#E3176E;}
</style>
<g>
	<path class="st0" d="M1047.2,91h-15.4l0,0h-347c-16.3,0-29.6,13.3-29.6,29.6v93c-35,12.4-58.8,45.6-58.8,83.3
		c0,37.7,23.8,70.9,58.8,83.3v142c0,16.3,13.3,29.6,29.6,29.6h166.5c16.3,0,29.6-13.3,29.6-29.6c0-16.1,13.1-29.2,29.2-29.2
		c16.1,0,29.2,13.1,29.2,29.2c0,16.3,13.3,29.6,29.6,29.6h117.5c16.3,0,29.6-13.3,29.6-29.6l0-362.4C1116,121.8,1085.2,91,1047.2,91
		z M684.8,326.1c-16.1,0-29.2-13.1-29.2-29.2s13.1-29.2,29.2-29.2c16.3,0,29.6-13.3,29.6-29.6v-87.9h332.8c5.3,0,9.6,4.3,9.6,9.6
		l0,332.8h-63.4c-12.4-35-45.6-58.8-83.3-58.8s-70.9,23.8-83.3,58.8H714.4V355.6C714.4,339.3,701.1,326.1,684.8,326.1z"/>
	<path class="st0" d="M929.7,649.3h-7.5l0,0h-85.5c-12.4-35-45.6-58.8-83.3-58.8c-37.7,0-70.9,23.8-83.3,58.8H557.7V512.4
		c0-16.3-13.3-29.6-29.6-29.6c-16.1,0-29.2-13.1-29.2-29.2c0-16.1,13.1-29.2,29.2-29.2c16.3,0,29.6-13.3,29.6-29.6V277.3
		c0-16.3-13.3-29.6-29.6-29.6H405.7c-16.3,0-29.6,13.3-29.6,29.6c0,16.3,13.3,29.6,29.6,29.6l92.8,0v63.4
		c-35,12.4-58.8,45.6-58.8,83.3c0,37.7,23.8,70.9,58.8,83.3v112.4H361.7c-16.3,0-29.6,13.3-29.6,29.6c0,16.1-13.1,29.2-29.2,29.2
		c-16.1,0-29.2-13.1-29.2-29.2c0-16.3-13.3-29.6-29.6-29.6h-87.9V316.5c0-5.3,4.3-9.6,9.6-9.6H249c16.3,0,29.6-13.3,29.6-29.6
		s-13.3-29.6-29.6-29.6l-83.3,0h0c-37.9,0-68.8,30.8-68.8,68.8v724.8c0,37.9,30.8,68.8,68.8,68.8h724.8c37.9,0,68.8-30.8,68.8-68.8
		V678.9C959.3,662.5,946.1,649.3,929.7,649.3z M156.2,1041.3V708.5h63.4c12.4,35,45.6,58.8,83.3,58.8s70.9-23.8,83.3-58.8h112.4
		v136.9c0,16.3,13.3,29.6,29.6,29.6c16.1,0,29.2,13.1,29.2,29.2c0,16.1-13.1,29.2-29.2,29.2c-15.8,0-28.7,12.4-29.5,28l0,0.1l0,1.5
		v87.9H165.8C160.5,1050.9,156.2,1046.6,156.2,1041.3z M557.7,987.4c35-12.4,58.8-45.6,58.8-83.3c0-37.7-23.8-70.9-58.8-83.3V708.5
		h136.9c16.3,0,29.6-13.3,29.6-29.6c0-16.1,13.1-29.2,29.2-29.2c16.1,0,29.2,13.1,29.2,29.2c0,16.3,13.3,29.6,29.6,29.6h87.9
		l0,332.8c0,5.3-4.3,9.6-9.6,9.6H557.7V987.4z"/>
	<path class="st0" d="M327.4,306.9c16.3,0,29.6-13.3,29.6-29.6s-13.3-29.6-29.6-29.6c-16.3,0-29.6,13.3-29.6,29.6
		S311.1,306.9,327.4,306.9z"/>
</g>
</svg>
