<?xml version="1.0" encoding="utf-8"?>
<!-- Generator: Adobe Illustrator 28.4.1, SVG Export Plug-In . SVG Version: 6.00 Build 0)  -->
<svg version="1.1" id="Layer_1" xmlns="http://www.w3.org/2000/svg" xmlns:xlink="http://www.w3.org/1999/xlink" x="0px" y="0px"
	 viewBox="0 0 1200 1200" style="enable-background:new 0 0 1200 1200;" xml:space="preserve">
<style type="text/css">
	.st0{fill:#E3176E;}
</style>
<path class="st0" d="M1072.9,556.5c-34-0.5-67.2,10.1-94.6,30.3c-36,27-85.5,27-121.5,0c-56.6-40.3-132.6-40.3-189.2,0
	c-9.1,6.6-19.1,11.9-29.6,15.8v-67c0-33.3,17.8-64,46.6-80.7l77.7-44.9c95.9-55.7,155.1-158.1,155.3-269c0-17.1-13.9-31.1-31.1-31.1
	c-119.1,0.1-227.6,68.2-279.6,175.3C555.1,178.2,446.5,110.1,327.4,110c-17.1,0-31.1,13.9-31.1,31.1c0.2,110.9,59.4,213.3,155.3,269
	l77.7,44.8c28.8,16.7,46.6,47.4,46.6,80.7v67c-10.6-3.9-20.5-9.3-29.6-15.8c-27.4-20.2-60.6-30.8-94.6-30.3
	c-34-0.5-67.2,10.1-94.6,30.3c-17.3,13.6-38.7,20.8-60.7,20.3c-22,0.5-43.4-6.6-60.7-20.2c-27.3-20.1-60.6-30.8-94.6-30.3
	c-17.1,0-31.1,13.9-31.1,31.1v485.3c0,17.1,13.9,31.1,31.1,31.1h931.9c17.1,0,31.1-13.9,31.1-31.1V587.6
	C1104,570.4,1090.1,556.5,1072.9,556.5L1072.9,556.5z M560.4,401.1l-77.7-44.8c-66.5-38.6-111.5-105.7-122-181.9
	c119.6,16.4,210.3,116.2,215,236.9C570.8,407.6,565.7,404.2,560.4,401.1L560.4,401.1z M853.2,174.3c-10.5,76.2-55.5,143.3-122,181.9
	l-77.7,44.8c-5.3,3.1-10.4,6.4-15.4,10.1C642.9,290.6,733.6,190.7,853.2,174.3L853.2,174.3z M201.8,638.9
	c27.3,20.1,60.6,30.8,94.6,30.3c34,0.5,67.2-10.1,94.6-30.3c17.3-13.6,38.7-20.7,60.7-20.2c22-0.5,43.4,6.6,60.7,20.2
	c56.6,40.3,132.6,40.3,189.2,0c36-27,85.5-27,121.5,0c56.6,40.3,132.6,40.3,189.2,0c9.1-6.6,19.1-11.9,29.7-15.8v170.3H172.1V623
	C182.7,627,192.7,632.3,201.8,638.9z M307,917.6H172.1v-62.1h272.5c-3.3,3-6.5,6-9.6,9.1C401.2,898.6,355.1,917.7,307,917.6
	L307,917.6z M479,908.5c33.9-34.1,80-53.1,128-53h434.9v62.1H469.3C472.6,914.7,475.8,911.6,479,908.5L479,908.5z M172.1,1041.9
	v-62.1H607c48-0.1,94.2,19,128,53c3.2,3.2,6.3,6.2,9.6,9.1H172.1z M907,1041.9c-48,0.1-94.2-19-128-53c-3.2-3.2-6.3-6.2-9.6-9.1
	h272.5v62.1H907z"/>
</svg>
