<?xml version="1.0" encoding="utf-8"?>
<!-- Generator: Adobe Illustrator 28.4.1, SVG Export Plug-In . SVG Version: 6.00 Build 0)  -->
<svg version="1.1" id="Layer_1" xmlns="http://www.w3.org/2000/svg" xmlns:xlink="http://www.w3.org/1999/xlink" x="0px" y="0px"
	 viewBox="0 0 595.28 841.89" style="enable-background:new 0 0 595.28 841.89;" xml:space="preserve">
<style type="text/css">
	.st0{fill-rule:evenodd;clip-rule:evenodd;fill:#720F33;}
</style>
<path class="st0" d="M267.26,617.8c28.17,0,17.08-78.94,41.14-126.63c9.35-18.53,22.91-35.2,43.78-46.84
	c29.78-16.61,45.08-12.94,72.81-14.25c4.49-0.21,5.7-5.79,1.62-7.51c-6.85-2.88-14.07-4.78-21.02-7.41
	c-6.88-2.6-13.58-5.61-20.2-8.73c-8.41-3.97-16.7-8.17-25.16-12.06c-4.85-2.23-9.75-4.37-14.76-6.3c-15.54-6-31.92-9.62-48.84-9.66
	c-10.05-0.03-20.09,1.51-29.38,4.89c-25.05,8.48-49.55,26.33-49.05,79.95C218.74,518.57,250.57,617.8,267.26,617.8z M297.16,402.66
	c5.89-0.99,11.46,2.99,12.44,8.87c0.98,5.89-2.99,11.46-8.88,12.44c-5.89,0.98-11.46-2.99-12.44-8.88
	C287.3,409.22,291.27,403.65,297.16,402.66"/>
</svg>
