<?xml version="1.0" encoding="utf-8"?>
<!-- Generator: Adobe Illustrator 28.4.1, SVG Export Plug-In . SVG Version: 6.00 Build 0)  -->
<svg version="1.1" id="Layer_1" xmlns="http://www.w3.org/2000/svg" xmlns:xlink="http://www.w3.org/1999/xlink" x="0px" y="0px"
	 viewBox="0 0 1200 1200" style="enable-background:new 0 0 1200 1200;" xml:space="preserve">
<style type="text/css">
	.st0{fill:#E3176E;}
</style>
<path class="st0" d="M884.2,549.9c-20.6,0-37.7,17.1-37.7,37.7v317.9H294.7V353.7h317.9c20.6,0,37.7-17.1,37.7-37.7
	s-17.1-37.7-37.7-37.7H257.9c-20.6,0-37.7,17.1-37.7,37.7v626.3c0,20.6,17.1,37.7,37.7,37.7h626.3c20.6,0,37.7-17.1,37.7-37.7V586.7
	C921.9,566.2,904.8,549.9,884.2,549.9L884.2,549.9z"/>
<path class="st0" d="M996.4,166.1H771.1c-20.6,0-37.7,17.1-37.7,37.7s17.1,37.7,37.7,37.7h135.4L520.9,627
	c-14.6,14.6-14.6,38.6,0,53.1c7.7,7.7,17.1,11.1,26.6,11.1c9.4,0,18.8-3.4,26.6-11.1l385.6-385.6v135.4c0,20.6,17.1,37.7,37.7,37.7
	c20.6,0,37.7-17.1,37.7-37.7V203.8C1034.1,183.2,1017,166.1,996.4,166.1L996.4,166.1z"/>
</svg>
