<?xml version="1.0" encoding="utf-8"?>
<!-- Generator: Adobe Illustrator 28.4.1, SVG Export Plug-In . SVG Version: 6.00 Build 0)  -->
<svg version="1.1" id="Layer_1" xmlns="http://www.w3.org/2000/svg" xmlns:xlink="http://www.w3.org/1999/xlink" x="0px" y="0px"
	 viewBox="0 0 1444.3 567" style="enable-background:new 0 0 1444.3 567;" xml:space="preserve">
<style type="text/css">
	.st0{fill-rule:evenodd;clip-rule:evenodd;fill:#720432;}
</style>
<g>
	<path class="st0" d="M-0.8,551.1h129c0,0,0,0,0,0c0.4,0,0.7,0,1.1-0.1c0.1,0,0.1,0,0.1,0c8.1-0.3,14.5-3.1,19.7-7.9
		c27.7-25,22.6-104.7,54.5-167.9c12.4-24.6,30.4-46.7,58-62.1c39.5-22,59.8-17.2,96.5-18.9c6-0.3,7.6-7.7,2.1-10
		c-9.1-3.8-18.7-6.3-27.9-9.8c-9.1-3.4-18-7.4-26.8-11.6c-11.1-5.3-22.1-10.8-33.4-16c-6.4-3-12.9-5.8-19.6-8.4
		c-20.6-8-42.3-12.8-64.7-12.8c-13.3,0-26.6,2-38.9,6.5v-82.8h231.7V12H-0.8V551.1z M188.8,258c7.8-1.3,15.2,4,16.5,11.8
		c1.3,7.8-4,15.2-11.8,16.5c-7.8,1.3-15.2-4-16.5-11.8C175.7,266.7,181,259.3,188.8,258z"/>
	<rect x="415" y="12" class="st0" width="141.7" height="535"/>
	<g>
		<rect x="590.8" y="148.7" class="st0" width="141.7" height="398.3"/>
		<rect x="590.8" y="12" class="st0" width="141.7" height="94.2"/>
	</g>
	<path class="st0" d="M981.5,423.7c-27.5,0-35.8-10.8-35.8-34.2V219.5h90.8v-110h-90.8V12H804v97.5h-40.8v110H804v195.9
		C804,492,844,557,943.2,557c48.3,0,67.5-5.8,100-15.8l-15-126.7C1017.3,417.9,997.3,423.7,981.5,423.7z"/>
	<path class="st0" d="M1444.3,317.8c0-109.2-56.7-181.7-182.5-181.7c-135,0-208.3,82.5-208.3,223.3c0,136.7,86.7,200,205.8,200
		s162.5-56.7,180-121.7L1321,406.2c-7.5,21.7-19.2,40.8-60.8,40.8c-41.7,0-62.5-19.2-67.5-74.2h249.2
		C1444.3,352,1444.3,337,1444.3,317.8z M1315.2,318.7h-122.5c4.2-58.3,24.2-78.3,65-78.3C1296.8,240.3,1316.8,264.5,1315.2,318.7z"
		/>
</g>
</svg>
