<?xml version="1.0" encoding="utf-8"?>
<!-- Generator: Adobe Illustrator 28.4.1, SVG Export Plug-In . SVG Version: 6.00 Build 0)  -->
<svg version="1.1" id="Layer_1" xmlns="http://www.w3.org/2000/svg" xmlns:xlink="http://www.w3.org/1999/xlink" x="0px" y="0px"
	 viewBox="0 0 1444.33 922.43" style="enable-background:new 0 0 1444.33 922.43;" xml:space="preserve">
<style type="text/css">
	.st0{fill-rule:evenodd;clip-rule:evenodd;fill:#E49BA5;}
</style>
<g>
	<path class="st0" d="M177.12,583.8h97.28c0.01,0,0.01,0,0.01,0c0.29,0,0.56-0.03,0.85-0.04c0.04,0,0.08,0,0.11-0.01
		c6.1-0.25,10.93-2.37,14.89-5.95c20.9-18.88,17.08-78.94,41.14-126.63c9.35-18.53,22.91-35.2,43.78-46.84
		c29.78-16.61,45.08-12.94,72.81-14.25c4.49-0.21,5.7-5.8,1.62-7.51c-6.85-2.88-14.07-4.78-21.02-7.41
		c-6.88-2.6-13.58-5.61-20.2-8.73c-8.41-3.97-16.7-8.17-25.16-12.06c-4.85-2.23-9.75-4.37-14.76-6.3c-15.54-6-31.92-9.62-48.84-9.66
		c-10.05-0.03-20.09,1.51-29.38,4.89v-62.47h174.74V177.12H177.12V583.8z M320.16,362.66c5.89-0.99,11.46,2.99,12.44,8.87
		c0.99,5.89-2.99,11.46-8.87,12.44c-5.89,0.98-11.46-2.99-12.44-8.88C310.3,369.22,314.27,363.65,320.16,362.66z"/>
	<rect x="490.78" y="177.12" class="st0" width="106.86" height="403.54"/>
	<g>
		<rect x="623.4" y="280.2" class="st0" width="106.86" height="300.46"/>
		<rect x="623.4" y="177.12" class="st0" width="106.86" height="71.03"/>
	</g>
	<path class="st0" d="M918.1,487.67c-20.74,0-27.03-8.17-27.03-25.77V333.63h68.51v-82.97h-68.51v-73.54H784.22v73.54h-30.8v82.97
		h30.8v147.75c0,57.83,30.17,106.86,104.97,106.86c36.46,0,50.91-4.4,75.43-11.94l-11.31-95.54
		C945.13,483.27,930.04,487.67,918.1,487.67z"/>
	<path class="st0" d="M1267.21,407.8c0-82.34-42.74-137.03-137.66-137.03c-101.83,0-157.14,62.23-157.14,168.46
		c0,103.09,65.37,150.86,155.26,150.86c89.89,0,122.57-42.74,135.77-91.77l-89.26-23.89c-5.66,16.34-14.46,30.8-45.89,30.8
		s-47.14-14.46-50.92-55.94h187.94C1267.21,433.58,1267.21,422.26,1267.21,407.8z M1169.79,408.43h-92.4
		c3.14-44,18.23-59.09,49.03-59.09C1155.96,349.35,1171.04,367.58,1169.79,408.43z"/>
</g>
</svg>
