<?xml version="1.0" encoding="utf-8"?>
<!-- Generator: Adobe Illustrator 28.4.1, SVG Export Plug-In . SVG Version: 6.00 Build 0)  -->
<svg version="1.1" id="Layer_1" xmlns="http://www.w3.org/2000/svg" xmlns:xlink="http://www.w3.org/1999/xlink" x="0px" y="0px"
	 viewBox="0 0 1047 567" style="enable-background:new 0 0 1047 567;" xml:space="preserve">
<style type="text/css">
	.st0{fill-rule:evenodd;clip-rule:evenodd;fill:#720432;}
	.st1{fill:#720432;}
</style>
<g>
	<g>
		<path class="st0" d="M8.5,389.9h91.9c0,0,0,0,0,0c0.3,0,0.5,0,0.8,0c0,0,0.1,0,0.1,0c5.8-0.2,10.3-2.2,14.1-5.6
			c19.7-17.8,16.1-74.6,38.9-119.6c8.8-17.5,21.6-33.2,41.4-44.2c28.1-15.7,42.6-12.2,68.8-13.5c4.2-0.2,5.4-5.5,1.5-7.1
			c-6.5-2.7-13.3-4.5-19.9-7c-6.5-2.5-12.8-5.3-19.1-8.2c-7.9-3.8-15.8-7.7-23.8-11.4c-4.6-2.1-9.2-4.1-13.9-5.9
			c-14.7-5.7-30.2-9.1-46.1-9.1c-9.5,0-19,1.4-27.7,4.6v-59h165v-98H8.5V389.9z M143.6,181c5.6-0.9,10.8,2.8,11.8,8.4
			c0.9,5.6-2.8,10.8-8.4,11.8c-5.6,0.9-10.8-2.8-11.8-8.4C134.3,187.2,138.1,181.9,143.6,181z"/>
		<rect x="304.8" y="5.8" class="st0" width="100.9" height="381.1"/>
		<g>
			<rect x="430" y="103.1" class="st0" width="100.9" height="283.8"/>
			<rect x="430" y="5.8" class="st0" width="100.9" height="67.1"/>
		</g>
		<path class="st0" d="M708.3,299.1c-19.6,0-25.5-7.7-25.5-24.3V153.6h64.7V75.2h-64.7V5.8H581.9v69.5h-29.1v78.4h29.1v139.5
			c0,54.6,28.5,100.9,99.1,100.9c34.4,0,48.1-4.2,71.2-11.3l-10.7-90.2C733.9,294.9,719.6,299.1,708.3,299.1z"/>
		<path class="st0" d="M1038.1,223.6c0-77.8-40.4-129.4-130-129.4c-96.2,0-148.4,58.8-148.4,159.1c0,97.4,61.7,142.5,146.6,142.5
			s115.8-40.4,128.2-86.7l-84.3-22.6c-5.3,15.4-13.7,29.1-43.3,29.1c-29.7,0-44.5-13.7-48.1-52.8h177.5
			C1038.1,248,1038.1,237.3,1038.1,223.6z M946,224.2h-87.3c3-41.6,17.2-55.8,46.3-55.8C933,168.4,947.2,185.6,946,224.2z"/>
	</g>
	<g>
		<g>
			<path class="st1" d="M60.9,520.8c-5.1-11.7-13.7-35.2-19.6-53.5l-2.4,0.2c1.3,20.5,2.6,48.4,2.6,62.8v33.5H5.2V431.6h55.5
				l15.9,35.2c6.8,15.2,14.5,38.1,19.2,54.8l2.6-0.4c-1.5-19.2-2.6-41.2-2.6-54.8v-34.8h36.3v132.1H79.9L60.9,520.8z"/>
			<path class="st1" d="M232.5,508.4v-76.9h39.6v80.2c0,35.2-21.6,55.1-61,55.1c-39.6,0-61-19.8-61-55.1v-80.2h39.6v76.9
				c0,15,4.6,23.6,21.4,23.6C227.9,532,232.5,523.4,232.5,508.4z"/>
			<path class="st1" d="M283.6,431.6h109.2v36.3H358v95.8h-39.6v-95.8h-34.8V431.6z"/>
			<path class="st1" d="M458.7,523h-14.5v40.7h-39.6V431.6h60.8c34.8,0,54.2,14.8,54.2,46.5c0,19.4-8.4,31.9-22.5,38.8l30.2,44.5
				v2.4h-46L458.7,523z M444.1,464.6v29.5h18.9c13,0,17.2-4.6,17.2-14.8c0-10.8-5.5-14.8-17.8-14.8H444.1z"/>
			<path class="st1" d="M536.9,563.7V431.6h39.6v132.1H536.9z"/>
			<path class="st1" d="M588.2,431.6h109.2v36.3h-34.8v95.8H623v-95.8h-34.8V431.6z"/>
			<path class="st1" d="M709.1,563.7V431.6h39.6v132.1H709.1z"/>
			<path class="st1" d="M762.4,497.2c0-43.6,26.4-68.9,67.6-68.9c41.8,0,67.6,25.3,67.6,68.9S873.1,567,830,567
				C786.8,567,762.4,540.8,762.4,497.2z M858.1,497c0-21.1-7.7-34.4-28.2-34.4c-20.5,0-28.2,13.4-28.2,34.4c0,22.9,7.7,36.3,28,36.3
				C850.4,533.3,858.1,520.1,858.1,497z"/>
			<path class="st1" d="M966.9,520.8c-5.1-11.7-13.7-35.2-19.6-53.5l-2.4,0.2c1.3,20.5,2.6,48.4,2.6,62.8v33.5h-36.3V431.6h55.5
				l15.9,35.2c6.8,15.2,14.5,38.1,19.2,54.8l2.6-0.4c-1.5-19.2-2.6-41.2-2.6-54.8v-34.8h36.3v132.1h-52.2L966.9,520.8z"/>
		</g>
	</g>
</g>
</svg>
