<?xml version="1.0" encoding="UTF-8"?>
<svg width="1200pt" height="1200pt" version="1.1" viewBox="0 0 1200 1200" xmlns="http://www.w3.org/2000/svg">
 <path d="m760.87 760.92c-7.0781 7.0781-11.062 16.641-11.062 26.578 0 9.9844 3.9844 19.547 11.062 26.578l225.05 225.05c7.0312 7.0781 16.594 11.062 26.578 11.062 9.9375 0 19.5-3.9844 26.578-11.062 7.0312-7.0312 11.016-16.594 11.016-26.531 0-9.9844-3.9844-19.547-11.016-26.578l-225.05-225.05v-0.046875c-7.0781-7.0312-16.641-11.016-26.578-11.016-9.9844 0-19.547 3.9844-26.578 11.016z"/>
 <path d="m525 150c-206.68 0-375.1 168.42-375.1 375.1 0 206.68 168.42 374.81 375.1 374.81s375.1-168.14 375.1-374.81c0-206.68-168.42-375.1-375.1-375.1zm0 75c166.13 0 300.1 133.97 300.1 300.1s-133.97 299.81-300.1 299.81-300.1-133.69-300.1-299.81c0-166.12 133.92-300.1 300.1-300.1z"/>
</svg>
